<svg xmlns="http://www.w3.org/2000/svg" viewBox="0 0 128 128" width="40" height="40"><path fill="#FFF" d="M209.04 21.15h27.55c9.35 0 17.51 1.93 24.49 5.8 6.97 3.87 12.33 9.25 16.07 16.13 3.74 6.89 5.61 14.79 5.61 23.72s-1.87 16.83-5.61 23.72-9.1 12.26-16.07 16.13-15.13 5.8-24.49 5.8h-27.55v-91.3zm27.55 80.99c10.8 0 19.36-3.1 25.7-9.31 6.33-6.21 9.5-14.88 9.5-26.02s-3.17-19.81-9.5-26.02-14.9-9.31-25.7-9.31h-16.83v70.65h16.83v.01zM299.46 111.7c-3.74-1.87-6.63-4.44-8.67-7.72-2.04-3.27-3.06-6.99-3.06-11.16 0-6.89 2.59-12.26 7.78-16.13 5.18-3.87 11.73-5.8 19.64-5.8 3.91 0 7.54.43 10.9 1.28s5.93 1.83 7.72 2.93v-3.95c0-4.85-1.7-8.74-5.1-11.67s-7.7-4.4-12.88-4.4c-3.66 0-7.01.79-10.08 2.36-3.06 1.57-5.48 3.76-7.27 6.57l-8.16-6.12c2.55-3.91 6.06-6.97 10.52-9.18s9.42-3.32 14.86-3.32c8.84 0 15.79 2.32 20.85 6.95 5.06 4.64 7.59 10.95 7.59 18.94v41.19h-10.34v-9.31h-.51c-1.87 3.15-4.68 5.82-8.42 8.03-3.74 2.21-7.95 3.32-12.63 3.32-4.75 0-9-.94-12.74-2.81zm23.97-9.56c3.14-1.87 5.65-4.38 7.52-7.52s2.81-6.59 2.81-10.33c-2.04-1.36-4.55-2.47-7.52-3.32-2.98-.85-6.12-1.28-9.44-1.28-5.95 0-10.44 1.23-13.45 3.7-3.02 2.47-4.53 5.66-4.53 9.56 0 3.57 1.36 6.46 4.08 8.67s6.16 3.32 10.33 3.32c3.66 0 7.06-.93 10.2-2.8zM355.53 48.45h10.33v10.33h.51c1.53-3.83 4.12-6.8 7.78-8.93 3.65-2.12 7.65-3.19 11.99-3.19 1.87 0 3.44.13 4.72.38v11.1c-1.45-.34-3.4-.51-5.87-.51-5.53 0-10.01 1.83-13.45 5.48-3.44 3.66-5.17 8.42-5.17 14.28v36.09h-10.84V48.45zm67.32 64.76c-2.25-.86-4.14-2.03-5.68-3.51-1.7-1.64-2.98-3.55-3.83-5.71-.85-2.16-1.28-4.8-1.28-7.92V57.25h-11.35v-9.82h11.35V29.07h10.84v18.36h15.81v9.82H422.9v36.24c0 3.65.68 6.34 2.04 8.08 1.61 1.91 3.95 2.87 7.01 2.87 2.46 0 4.85-.72 7.14-2.17v10.59c-1.28.59-2.57 1.02-3.89 1.28s-3 .38-5.04.38c-2.61-.01-5.05-.45-7.31-1.31z"/><path fill="#01579B" d="M31.65 109.5L8.38 86.23C5.62 83.4 3.91 79.4 3.91 75.49c0-1.81 1.02-4.64 1.79-6.26l21.48-44.74 4.47 85.01z"/><path fill="#40C4FF" d="M111.3 28.96L88.03 5.69C86 3.65 81.77 1.22 78.19 1.22c-3.08 0-6.1.62-8.05 1.79L27.19 24.49l84.11 4.47zM59.39 137.24h56.38v-24.16L73.71 99.65l-38.48 13.43z"/><path fill="#29B6F6" d="M27.18 96.97c0 7.18.9 8.94 4.47 12.53l3.58 3.58h80.54L76.4 68.34 27.18 24.49v72.48z"/><path fill="#01579B" d="M98.77 24.48H27.18l88.59 88.59h24.16V57.59l-28.64-28.64c-4.02-4.03-7.59-4.47-12.52-4.47z"/><path fill="#FFF" d="M32.55 110.39c-3.58-3.59-4.47-7.13-4.47-13.42V25.38l-.89-.89v72.48c-.01 6.29-.01 8.03 5.36 13.42l2.68 2.68-2.68-2.68z" opacity=".2"/><path fill="#263238" d="M139.04 56.7v55.48h-24.16l.89.9h24.16V57.59z" opacity=".2"/><path fill="#FFF" d="M111.3 28.96c-4.44-4.44-8.07-4.47-13.42-4.47H27.19l.89.89h69.8c2.67 0 9.41-.45 13.42 3.58z" opacity=".2"/><radialGradient id="a" cx="71.915" cy="62.2171" r="68" gradientTransform="matrix(1 0 0 -1 0 131.4443)" gradientUnits="userSpaceOnUse"><stop offset="0" stop-color="#fff" stop-opacity=".1"/><stop offset="1" stop-color="#fff" stop-opacity="0"/></radialGradient><path fill="url(#a)" d="M139.04 56.7L111.3 28.96 88.03 5.69C86 3.65 81.77 1.22 78.19 1.22c-3.08 0-6.1.62-8.05 1.79L27.19 24.49 5.71 69.23c-.77 1.63-1.79 4.46-1.79 6.26 0 3.91 1.72 7.9 4.47 10.74l21.44 21.29c.51.63 1.11 1.27 1.82 1.98l.89.89 2.68 2.68 23.27 23.27.89.89h56.37v-24.16h24.16V57.59l-.87-.89z" opacity=".2"/></svg>
