<svg xmlns="http://www.w3.org/2000/svg" width="512" height="512">
  <circle cx="255" cy="256" r="255" fill="#c3c3c3" stroke="#444" opacity="NaN"/>
  <path fill="none" stroke="#444" stroke-width="7" stroke-linecap="round" d="M150.10311 360.54951c56.49193 82.91704 164.94287 73.48427 210.28245-1.15039"/>
  <rect width="35" height="81.11107" x="238.5" y="236.65542" fill="#ffff20" stroke="#444" stroke-width="7" rx="19"/>
  <path fill="#BBB" d="M257.95395 32.60708c-1.07495-.28516-1.6977-1.45752-1.62424-2.52105-.02752-1.38916.10065-2.85092-.56364-4.12824-.37863-.9537-1.02364-1.79573-1.29281-2.78959-.33496-1.5419.07879-3.28949 1.32541-4.32463 1.4059-1.20468 3.65102-1.36169 5.19864-.33779 1.09155.75187 1.87912 1.99197 1.84986 3.34521.12808 1.01117-.271 1.96226-.74047 2.83152-.33636.69991-.72917 1.3848-1.03447 2.09251-.08048 1.45107-.03432 2.91545-.25263 4.35403-.36365 1.11474-1.73412 1.87265-2.86566 1.47803zm2.8391-2.59453c-.63795-.34387-1.55468-.1203-2.29621-.19434-.60573.12116-1.68204-.2485-2.00406.306.73643.28808 1.6019.07213 2.3859.11979.62732-.06025 1.34907.05714 1.91437-.23146zm-.04778-.64707c.09388-.87365-1.28765-.42784-1.84888-.55789-.74283.15035-1.92497-.32184-2.39215.34941.27684.67456 1.51145.20015 2.15977.34981.69137-.0245 1.40863.02478 2.08126-.14133zm.0086-1.5307c.18238-1.70188 1.22296-3.11892 1.8255-4.67571.4954-1.86393-.48573-3.99338-2.26206-4.77577-1.76806-.87627-4.12369-.2143-5.12288 1.50273-.96273 1.41831-.779 3.3454.16195 4.7247.67139 1.20543 1.20705 2.56009 1.11979 3.96294h4.18093c.03226-.24629.0645-.4926.09677-.73889zm-3.08529-2.41111c-.55217-.96009-1.11901-1.92757-1.50351-2.96807.34569-.44748.44626-.94593.55364-1.4717.97025-.19058-.1235 1.10569.79256 1.1349.81314.35379.45643-1.7167 1.132-.97039-.48495.81908.95257 1.6339 1.00533.46218-.06969-.88471.86888-.71895.50295.08366.0302.41288.70243.53125.71393.86332-.48393 1.04969-.90458 2.13342-1.47761 3.13832-.12898-.38907.5073-1.36421.71062-1.93677.39233-.49493.72946-1.82872-.29332-1.64691-.5933.9254-1.39142-.58332-1.97235.30353-.49315.1471-1.26876-.85406-1.41181.10858.37142 1.14336 1.14425 2.11779 1.54861 3.24935-.13721-.0809-.21534-.22283-.30105-.35zm-.77503-4.19027c-.2685-.13104.11317.69666-.00001 0h.00001zm1.60485.09776c-.34855-.58988-.16162.71571 0 0zm1.55555 0c-.34855-.58988-.16162.71571 0 0zm-7.24183-4.35868c-.61605-.62523-1.29702-1.21191-1.83278-1.90109 1.33845 1.10794 2.56351 2.35571 3.76971 3.60661.3203.44014-.55878-.41102-.72239-.55369-.40937-.37913-.81338-.76403-1.21454-1.15183zm9.51305 1.78761c1.04128-1.29743 2.01281-2.6576 3.13546-3.88591-.18799.52885-.79312 1.16166-1.17361 1.70633-.63541.79052-1.22936 1.62636-1.95597 2.33514-.09069.09586-.22611-.13119-.00586-.15556h-.00001zm-2.25543-1.23085c.35977-1.02904.88162-2.00857 1.46382-2.92955-.01353.51091-.631 1.47925-.92779 2.11276-.16789.25493-.30951.66149-.53603.81679zm-4.6072-1.31971c-.25061-.36555-1.00502-1.21673-.86416-1.33281.72735.80646 1.46712 1.63884 1.98961 2.59254-.44496-.34126-.76512-.83415-1.12545-1.25973zm2.88028-.28769c-.05072-.3433.10673-1.98216.1942-.86934.00031.69723.07309 1.48215-.12098 2.11676-.08311-.40801-.06294-.83277-.07322-1.24742z"/>
  <g stroke="null" stroke-width="0">
    <path fill="#ffff20" stroke="none" d="M346.47213 217.6234s81.60467-81.62331 81.61473-81.63511l4.52894-4.64233c-17.55496 2.32533-56.77783 6.75195-56.90333 6.93206 4.10205-5.29098 21.7548-29.0503 22.51537-29.0503H347.8904l-5.10691 11.20837-21.48031 40.62449 56.74425-7.12029-31.57531 63.68311z"/>
  </g>
  <g stroke="null" stroke-width="0">
    <path fill="#ffff20" stroke="none" d="M132.37705 218.76806s81.60467-81.62331 81.61473-81.63511l4.52894-4.64233c-17.55495 2.32533-56.77783 6.75195-56.90333 6.93206 4.10206-5.29098 21.75481-29.0503 22.51537-29.0503h-50.33744l-5.1069 11.20837-21.48031 40.62449 56.74425-7.12029-31.57531 63.68311z"/>
  </g>
</svg>
